<svg width="48" height="48" viewBox="0 0 48 48" fill="none" xmlns="http://www.w3.org/2000/svg">
<path d="M44 24C44 35.0457 35.0457 44 24 44C12.9543 44 4 35.0457 4 24C4 12.9543 12.9543 4 24 4C35.0457 4 44 12.9543 44 24Z" fill="#ACB4C9"/>
<path fill-rule="evenodd" clip-rule="evenodd" d="M21.5 12C21.5 10.6193 22.6193 9.5 24 9.5C32.0081 9.5 38.5 15.9919 38.5 24C38.5 25.3807 37.3807 26.5 36 26.5C34.6193 26.5 33.5 25.3807 33.5 24C33.5 18.7533 29.2467 14.5 24 14.5C22.6193 14.5 21.5 13.3807 21.5 12ZM12 21.5C13.3807 21.5 14.5 22.6193 14.5 24C14.5 29.2467 18.7533 33.5 24 33.5C25.3807 33.5 26.5 34.6193 26.5 36C26.5 37.3807 25.3807 38.5 24 38.5C15.9919 38.5 9.5 32.0081 9.5 24C9.5 22.6193 10.6193 21.5 12 21.5Z" fill="#576684"/>
</svg>
