<svg width="256" height="256" viewBox="0 0 256 256" fill="none" xmlns="http://www.w3.org/2000/svg">
<path d="M149.5 112L153 102.5L159.5 93.5L165.5 87.5L172 83L178.5 80L185 78.5L191.5 78L199 78.5L206.5 80.5L212.5 84.5L219 90.5L223.5 97.5L226.5 105L210 119L208 118L203 109.5L198.5 104.5L194.5 102.5H188.5L183.5 103.5L175 110L169.5 125.5L169 146.5L172 154.5L181.5 167L189 168L198 164L204.5 155L206.5 148.5L211.5 151L226 158L224 162L219.5 172.5L215 179.5L205 187L195 191L186.5 192L173.5 190.5L167.5 188L161.5 183.5L157 178.5L153 172.5L149.5 165.5L147.5 158.5L145.5 147.5L145 136.5L146 123.5L149.5 112Z" fill="white"/>
<path d="M21.5 85L42.5 83H48.5L60 127L67.5 155.5L68.5 163L74.5 137L89 82.5L115 80V188L93 189L92.5 143.5L94 129L91 144L80 189L56.5 191L49 163L42.5 138V193H21.5V85Z" fill="white"/>
<g filter="url(#filter0_i_123_37)">
<path d="M96.0973 192.296L94.5133 197.192L69.8893 199.352L57.6493 193.304V198.92L34.8973 200.936L20.4973 193.736V84.296L48.7213 81.704L63.1213 88.904L74.6413 131.816L87.8893 81.128L115.969 78.824L130.369 86.024V195.608L106.465 197.48L96.0973 192.296ZM89.0413 82.568L70.7533 153.128C70.4653 154.28 70.1773 155.624 69.8893 157.16C69.6013 158.6 69.3613 159.896 69.1693 161.048C68.9773 162.2 68.8813 162.776 68.8813 162.776L68.3053 162.92C68.3053 162.92 68.2093 162.344 68.0173 161.192C67.9213 160.04 67.7293 158.696 67.4413 157.16C67.2493 155.624 67.0093 154.328 66.7213 153.272L47.5693 83.288L21.9373 85.592V192.152L41.8093 190.568V144.488C41.8093 142.472 41.7613 140.36 41.6653 138.152C41.5693 135.848 41.4733 133.928 41.3773 132.392C41.2813 130.856 41.2333 130.088 41.2333 130.088L41.5213 129.944C41.7133 131.288 41.9533 132.968 42.2413 134.984C42.6253 136.904 43.0093 138.776 43.3933 140.6C43.8733 142.328 44.2093 143.672 44.4013 144.632L56.4973 190.712L78.8173 188.696L90.6252 144.488C91.2013 142.28 91.7293 139.976 92.2093 137.576C92.6893 135.08 93.0733 132.968 93.3613 131.24C93.6493 129.512 93.7933 128.648 93.7933 128.648L94.0813 128.792C94.0813 128.792 94.0333 129.656 93.9373 131.384C93.8413 133.112 93.7453 135.128 93.6493 137.432C93.5533 139.736 93.5053 141.8 93.5053 143.624V188.84L114.529 187.112V80.408L89.0413 82.568ZM207.211 119.288C206.539 117.656 205.819 116.12 205.051 114.68C204.379 113.24 203.659 111.896 202.891 110.648C196.171 111.416 191.323 114.728 188.347 120.584C185.371 126.44 183.883 134.072 183.883 143.48C183.883 153.848 185.323 161.576 188.203 166.664C188.491 166.568 188.923 166.52 189.499 166.52C192.379 166.232 194.827 165.176 196.843 163.352C198.955 161.432 200.731 159.08 202.171 156.296C203.707 153.416 204.955 150.392 205.915 147.224L240.907 164.936C237.451 175.304 232.843 183.512 227.083 189.56C221.323 195.608 213.307 199.064 203.035 199.928C202.267 200.024 201.451 200.072 200.587 200.072C199.819 200.072 199.051 200.072 198.283 200.072C191.563 200.072 184.939 198.872 178.411 196.472C171.979 194.168 166.171 190.52 160.987 185.528C155.899 180.536 151.819 174.152 148.747 166.376C145.675 158.504 144.139 149.096 144.139 138.152C144.139 130.088 145.147 122.504 147.163 115.4C149.179 108.2 152.107 101.864 155.947 96.392C159.883 90.92 164.587 86.504 170.059 83.144C175.627 79.688 181.915 77.672 188.923 77.096C189.691 77 190.459 76.952 191.227 76.952C191.995 76.952 192.763 76.952 193.531 76.952C201.211 76.952 208.171 78.584 214.411 81.848C220.747 85.112 226.171 89.432 230.683 94.808C235.291 100.184 238.795 106.136 241.195 112.664L221.611 126.488L207.211 119.288ZM206.779 149.384C205.915 152.168 204.715 154.952 203.179 157.736C201.643 160.52 199.771 162.872 197.563 164.792C195.355 166.616 192.715 167.672 189.643 167.96C189.259 168.056 188.827 168.104 188.347 168.104C187.963 168.104 187.531 168.104 187.051 168.104C180.907 168.104 176.203 165.608 172.939 160.616C169.675 155.624 168.043 147.512 168.043 136.28C168.043 126.2 169.675 118.136 172.939 112.088C176.203 106.04 181.483 102.68 188.779 102.008H190.363C195.067 102.008 198.715 103.496 201.307 106.472C203.995 109.448 206.155 113 207.787 117.128L225.067 105.032C223.339 100.424 221.083 96.104 218.299 92.072C215.611 88.04 212.155 84.776 207.931 82.28C203.803 79.688 198.715 78.392 192.667 78.392C192.091 78.392 191.515 78.392 190.939 78.392C190.363 78.392 189.739 78.44 189.067 78.536C182.251 79.112 176.155 81.08 170.779 84.44C165.403 87.704 160.843 92.024 157.099 97.4C153.355 102.776 150.475 108.968 148.459 115.976C146.539 122.888 145.579 130.28 145.579 138.152C145.579 149.096 147.163 158.552 150.331 166.52C153.595 174.488 158.155 180.632 164.011 184.952C169.963 189.272 176.875 191.432 184.747 191.432C185.323 191.432 185.899 191.432 186.475 191.432C187.147 191.432 187.819 191.384 188.491 191.288C198.475 190.52 206.203 187.256 211.675 181.496C217.243 175.64 221.611 168.008 224.779 158.6L206.779 149.384Z" fill="#5C6195"/>
</g>
<defs>
<filter id="filter0_i_123_37" x="20.4973" y="76.952" width="220.698" height="123.984" filterUnits="userSpaceOnUse" color-interpolation-filters="sRGB">
<feFlood flood-opacity="0" result="BackgroundImageFix"/>
<feBlend mode="normal" in="SourceGraphic" in2="BackgroundImageFix" result="shape"/>
<feColorMatrix in="SourceAlpha" type="matrix" values="0 0 0 0 0 0 0 0 0 0 0 0 0 0 0 0 0 0 127 0" result="hardAlpha"/>
<feOffset/>
<feGaussianBlur stdDeviation="1"/>
<feComposite in2="hardAlpha" operator="arithmetic" k2="-1" k3="1"/>
<feColorMatrix type="matrix" values="0 0 0 0 0 0 0 0 0 0 0 0 0 0 0 0 0 0 0.5 0"/>
<feBlend mode="normal" in2="shape" result="effect1_innerShadow_123_37"/>
</filter>
</defs>
</svg>
