<svg width="640" height="256" viewBox="0 0 640 256" fill="none" xmlns="http://www.w3.org/2000/svg">
<path d="M18.5 18.5H599C611.426 18.5 621.5 28.5736 621.5 41V238.5H41C28.5736 238.5 18.5 228.426 18.5 216V18.5Z" fill="#C4C4C4" stroke="url(#paint0_linear_119_47)" stroke-width="5"/>
<g filter="url(#filter0_i_119_47)">
<path d="M144.044 170.864L142.988 174.128L126.572 175.568L118.412 171.536V175.28L103.244 176.624L93.644 171.824V98.864L112.46 97.136L122.06 101.936L129.74 130.544L138.572 96.752L157.292 95.216L166.892 100.016V173.072L150.956 174.32L144.044 170.864ZM139.34 97.712L127.148 144.752C126.956 145.52 126.764 146.416 126.572 147.44C126.38 148.4 126.22 149.264 126.092 150.032C125.964 150.8 125.9 151.184 125.9 151.184L125.516 151.28C125.516 151.28 125.452 150.896 125.324 150.128C125.26 149.36 125.132 148.464 124.94 147.44C124.812 146.416 124.652 145.552 124.46 144.848L111.692 98.192L94.604 99.728V170.768L107.852 169.712V138.992C107.852 137.648 107.82 136.24 107.756 134.768C107.692 133.232 107.628 131.952 107.564 130.928C107.5 129.904 107.468 129.392 107.468 129.392L107.66 129.296C107.788 130.192 107.948 131.312 108.14 132.656C108.396 133.936 108.652 135.184 108.908 136.4C109.228 137.552 109.452 138.448 109.58 139.088L117.644 169.808L132.524 168.464L140.396 138.992C140.78 137.52 141.132 135.984 141.452 134.384C141.772 132.72 142.028 131.312 142.22 130.16C142.412 129.008 142.508 128.432 142.508 128.432L142.7 128.528C142.7 128.528 142.668 129.104 142.604 130.256C142.54 131.408 142.476 132.752 142.412 134.288C142.348 135.824 142.316 137.2 142.316 138.416V168.56L156.332 167.408V96.272L139.34 97.712ZM177.992 169.712V116.912L184.52 116.432L177.8 113.072V96.752L193.832 95.408L203.432 100.208V116.528L196.616 117.104L203.144 120.368V173.072L187.592 174.416L177.992 169.712ZM178.76 97.616V112.016L192.872 110.864V96.464L178.76 97.616ZM178.952 117.776V168.656L192.584 167.504V116.624L178.952 117.776ZM238.298 169.616V139.568C237.53 140.336 237.05 141.232 236.858 142.256V174.128L222.362 175.568L212.762 170.768V118.064L227.45 116.72L230.522 119.216C231.61 118.32 232.794 117.52 234.074 116.816C235.354 116.048 236.89 115.6 238.682 115.472C239.002 115.472 239.29 115.472 239.546 115.472C239.802 115.408 240.058 115.376 240.314 115.376C243.194 115.376 246.01 115.888 248.762 116.912C251.578 117.936 254.074 119.376 256.25 121.232C258.49 123.024 260.25 125.136 261.53 127.568C262.874 130 263.546 132.624 263.546 135.44V172.976L247.898 174.32L238.298 169.616ZM252.986 129.104C252.986 124.688 251.77 121.456 249.338 119.408C246.97 117.36 244.026 116.336 240.506 116.336C240.25 116.336 239.962 116.336 239.642 116.336C239.386 116.336 239.098 116.368 238.778 116.432C235.642 116.688 232.986 117.904 230.81 120.08C228.634 122.192 227.29 124.656 226.778 127.472H226.49V117.776L213.722 118.928V169.808L227.45 168.56V137.36C227.77 135.824 228.474 134.416 229.562 133.136C230.714 131.856 232.186 131.12 233.978 130.928H234.362C235.706 130.928 236.858 131.408 237.818 132.368C238.778 133.264 239.258 134.768 239.258 136.88V168.56L252.986 167.312V129.104ZM273.055 169.712V116.912L279.583 116.432L272.863 113.072V96.752L288.895 95.408L298.495 100.208V116.528L291.679 117.104L298.207 120.368V173.072L282.655 174.416L273.055 169.712ZM273.823 97.616V112.016L287.935 110.864V96.464L273.823 97.616ZM274.015 117.776V168.656L287.647 167.504V116.624L274.015 117.776ZM348.433 122.192C347.985 121.104 347.505 120.08 346.993 119.12C346.545 118.16 346.065 117.264 345.553 116.432C341.073 116.944 337.841 119.152 335.857 123.056C333.873 126.96 332.881 132.048 332.881 138.32C332.881 145.232 333.841 150.384 335.761 153.776C335.953 153.712 336.241 153.68 336.625 153.68C338.545 153.488 340.177 152.784 341.521 151.568C342.929 150.288 344.113 148.72 345.073 146.864C346.097 144.944 346.929 142.928 347.569 140.816L370.897 152.624C368.593 159.536 365.521 165.008 361.681 169.04C357.841 173.072 352.497 175.376 345.649 175.952C345.137 176.016 344.593 176.048 344.017 176.048C343.505 176.048 342.993 176.048 342.481 176.048C338.001 176.048 333.585 175.248 329.233 173.648C324.945 172.112 321.073 169.68 317.617 166.352C314.225 163.024 311.505 158.768 309.457 153.584C307.409 148.336 306.385 142.064 306.385 134.768C306.385 129.392 307.057 124.336 308.401 119.6C309.745 114.8 311.697 110.576 314.257 106.928C316.881 103.28 320.017 100.336 323.665 98.096C327.377 95.792 331.569 94.448 336.241 94.064C336.753 94 337.265 93.968 337.777 93.968C338.289 93.968 338.801 93.968 339.313 93.968C344.433 93.968 349.073 95.056 353.233 97.232C357.457 99.408 361.073 102.288 364.081 105.872C367.153 109.456 369.489 113.424 371.089 117.776L358.033 126.992L348.433 122.192ZM348.145 142.256C347.569 144.112 346.769 145.968 345.745 147.824C344.721 149.68 343.473 151.248 342.001 152.528C340.529 153.744 338.769 154.448 336.721 154.64C336.465 154.704 336.177 154.736 335.857 154.736C335.601 154.736 335.313 154.736 334.993 154.736C330.897 154.736 327.761 153.072 325.585 149.744C323.409 146.416 322.321 141.008 322.321 133.52C322.321 126.8 323.409 121.424 325.585 117.392C327.761 113.36 331.281 111.12 336.145 110.672H337.201C340.337 110.672 342.769 111.664 344.497 113.648C346.289 115.632 347.729 118 348.817 120.752L360.337 112.688C359.185 109.616 357.681 106.736 355.825 104.048C354.033 101.36 351.729 99.184 348.913 97.52C346.161 95.792 342.769 94.928 338.737 94.928C338.353 94.928 337.969 94.928 337.585 94.928C337.201 94.928 336.785 94.96 336.337 95.024C331.793 95.408 327.729 96.72 324.145 98.96C320.561 101.136 317.521 104.016 315.025 107.6C312.529 111.184 310.609 115.312 309.265 119.984C307.985 124.592 307.345 129.52 307.345 134.768C307.345 142.064 308.401 148.368 310.513 153.68C312.689 158.992 315.729 163.088 319.633 165.968C323.601 168.848 328.209 170.288 333.457 170.288C333.841 170.288 334.225 170.288 334.609 170.288C335.057 170.288 335.505 170.256 335.953 170.192C342.609 169.68 347.761 167.504 351.409 163.664C355.121 159.76 358.033 154.672 360.145 148.4L348.145 142.256ZM428.734 171.728C426.686 172.56 424.574 172.976 422.398 172.976C420.414 172.976 418.59 172.688 416.926 172.112C415.262 171.6 413.982 171.088 413.086 170.576C410.27 173.968 406.142 175.92 400.702 176.432C400.19 176.496 399.678 176.528 399.166 176.528C398.654 176.528 398.142 176.528 397.63 176.528C393.662 176.528 390.014 175.824 386.686 174.416C383.358 173.072 380.67 171.024 378.622 168.272C376.638 165.456 375.646 162 375.646 157.904C375.646 153.488 376.862 149.968 379.294 147.344C381.79 144.72 385.502 142.224 390.43 139.856L385.534 138.224L375.934 133.424C377.534 127.856 380.126 123.664 383.71 120.848C387.358 118.032 391.486 116.4 396.094 115.952C396.67 115.888 397.246 115.856 397.822 115.856C398.398 115.792 398.942 115.76 399.454 115.76C404.062 115.76 408.254 116.624 412.03 118.352C415.806 120.016 418.814 122.416 421.054 125.552C423.294 128.624 424.414 132.24 424.414 136.4V154.64L430.27 157.52L428.734 171.728ZM419.518 154.352C417.982 155.056 416.83 155.408 416.062 155.408C414.59 155.408 413.854 154.448 413.854 152.528V131.6C413.854 121.744 408.894 116.816 398.974 116.816C398.526 116.816 398.078 116.816 397.63 116.816C397.182 116.816 396.702 116.848 396.19 116.912C391.774 117.36 387.838 118.896 384.382 121.52C380.926 124.144 378.494 127.952 377.086 132.944L387.838 136.496C388.542 134.32 389.502 132.56 390.718 131.216C391.998 129.872 393.438 129.136 395.038 129.008C395.23 129.008 395.422 129.008 395.614 129.008C395.806 128.944 395.966 128.912 396.094 128.912C397.566 128.912 398.686 129.264 399.454 129.968C400.222 130.672 400.606 131.632 400.606 132.848C400.606 134.192 400.19 135.28 399.358 136.112C398.526 136.88 397.374 137.616 395.902 138.32L391.582 140.336C386.654 142.64 382.91 145.072 380.35 147.632C377.854 150.128 376.605 153.552 376.605 157.904C376.605 166.48 380.638 170.768 388.702 170.768C389.086 170.768 389.47 170.768 389.854 170.768C390.238 170.768 390.622 170.736 391.006 170.672C394.078 170.416 396.734 169.68 398.974 168.464C401.214 167.248 402.91 165.52 404.062 163.28C404.51 164.624 405.47 165.68 406.942 166.448C408.414 167.216 410.142 167.6 412.126 167.6C414.238 167.6 416.254 167.184 418.174 166.352L419.518 154.352ZM393.694 159.536C392.606 159.536 391.71 159.248 391.006 158.672C390.302 158.032 389.95 157.136 389.95 155.984C389.95 153.232 391.358 151.184 394.174 149.84L396.094 148.88C396.99 148.432 397.854 148.016 398.686 147.632C399.582 147.184 400.254 146.704 400.702 146.192V152.816C400.382 154.8 399.614 156.4 398.398 157.616C397.182 158.768 395.838 159.408 394.366 159.536H393.694ZM471.22 172.016C470.196 172.848 468.98 173.584 467.572 174.224C466.228 174.864 464.628 175.248 462.772 175.376C462.26 175.44 461.716 175.472 461.14 175.472C460.564 175.472 460.02 175.472 459.508 175.472C454.388 175.472 449.844 174.384 445.876 172.208C441.972 170.096 438.9 166.768 436.66 162.224C434.484 157.68 433.396 151.792 433.396 144.56C433.396 135.472 435.124 128.464 438.58 123.536C442.1 118.608 447.028 115.856 453.364 115.28C453.62 115.28 453.844 115.28 454.036 115.28C454.292 115.216 454.548 115.184 454.804 115.184C456.596 115.184 458.132 115.376 459.411 115.76C460.692 116.144 461.844 116.496 462.868 116.816V95.504L478.516 94.16L488.116 98.96V172.016L473.428 173.168L471.22 172.016ZM463.828 96.368V120.368L463.54 120.464C463.092 119.184 462.1 118.16 460.564 117.392C459.028 116.56 457.108 116.144 454.804 116.144C454.612 116.144 454.388 116.176 454.132 116.24C453.94 116.24 453.716 116.24 453.46 116.24C447.38 116.816 442.676 119.504 439.348 124.304C436.02 129.04 434.355 135.792 434.355 144.56C434.355 153.008 435.891 159.344 438.964 163.568C442.1 167.728 446.292 169.808 451.54 169.808C451.86 169.808 452.148 169.808 452.404 169.808C452.724 169.808 453.012 169.776 453.268 169.712C456.276 169.392 458.708 168.464 460.564 166.928C462.42 165.328 463.732 163.536 464.5 161.552L464.788 161.648V167.408L477.556 166.352V95.216L463.828 96.368ZM455.764 157.04C453.716 157.04 451.956 155.984 450.484 153.872C449.076 151.696 448.372 148.176 448.372 143.312C448.372 138.448 449.044 134.928 450.388 132.752C451.732 130.576 453.78 129.36 456.531 129.104H457.396C459.06 129.104 460.468 129.52 461.62 130.352C462.772 131.184 463.508 132.272 463.828 133.616V146.864C463.828 149.744 463.124 152.112 461.716 153.968C460.372 155.824 458.58 156.848 456.34 157.04H455.764ZM462.868 135.92C461.46 136.112 460.436 137.136 459.796 138.992C459.22 140.848 458.932 143.888 458.932 148.112C458.932 149.456 458.964 150.736 459.028 151.952C459.092 153.104 459.284 154.064 459.604 154.832C461.78 153.04 462.868 150.384 462.868 146.864V135.92ZM549.81 157.136C548.082 162.512 545.522 166.864 542.13 170.192C538.802 173.52 534.258 175.44 528.498 175.952C527.794 176.016 527.09 176.048 526.386 176.048C525.746 176.112 525.074 176.144 524.37 176.144C518.802 176.144 513.778 174.992 509.298 172.688C504.882 170.448 501.362 167.056 498.738 162.512C496.114 157.968 494.802 152.336 494.802 145.616C494.802 139.728 495.794 134.64 497.778 130.352C499.826 126.064 502.578 122.704 506.034 120.272C509.554 117.776 513.554 116.336 518.034 115.952C518.482 115.888 518.93 115.856 519.378 115.856C519.89 115.856 520.37 115.856 520.818 115.856C524.402 115.856 527.922 116.496 531.378 117.776C534.898 118.992 538.066 120.912 540.882 123.536C543.762 126.16 546.034 129.552 547.698 133.712C549.426 137.808 550.29 142.736 550.29 148.496C550.29 149.008 550.29 149.552 550.29 150.128C550.29 150.64 550.258 151.152 550.194 151.664L540.114 152.528L549.81 157.136ZM527.154 149.744C526.578 151.92 525.522 153.712 523.986 155.12C522.45 156.528 520.466 157.36 518.034 157.616H517.266C515.09 157.616 513.298 156.816 511.89 155.216C510.482 153.616 509.778 151.408 509.778 148.592L539.634 146C539.698 145.36 539.73 144.752 539.73 144.176C539.73 143.536 539.73 142.928 539.73 142.352C539.73 134.288 538.002 128.016 534.546 123.536C531.09 119.056 526.322 116.816 520.242 116.816C519.922 116.816 519.57 116.816 519.186 116.816C518.866 116.816 518.514 116.848 518.13 116.912C513.842 117.232 510.002 118.608 506.61 121.04C503.218 123.408 500.562 126.672 498.642 130.832C496.722 134.992 495.762 139.92 495.762 145.616C495.762 153.872 497.618 160.048 501.33 164.144C505.042 168.24 509.97 170.288 516.114 170.288C516.562 170.288 517.01 170.288 517.458 170.288C517.906 170.288 518.354 170.256 518.802 170.192C524.306 169.744 528.658 167.952 531.858 164.816C535.122 161.68 537.458 157.776 538.866 153.104L527.154 149.744ZM510.258 137.84C510.258 135.728 510.994 133.904 512.466 132.368C513.938 130.832 515.826 129.968 518.13 129.776H518.994C520.914 129.776 522.482 130.352 523.698 131.504C524.978 132.592 525.618 134.256 525.618 136.496L510.258 137.84ZM518.034 154.544C518.034 154.864 518.162 155.184 518.418 155.504C518.738 155.824 519.058 156.144 519.378 156.464C520.53 156.144 521.426 155.76 522.066 155.312C522.706 154.864 523.25 154.416 523.698 153.968L518.034 154.544Z" fill="#5C6195"/>
</g>
<defs>
<filter id="filter0_i_119_47" x="93.644" y="93.968" width="456.646" height="82.656" filterUnits="userSpaceOnUse" color-interpolation-filters="sRGB">
<feFlood flood-opacity="0" result="BackgroundImageFix"/>
<feBlend mode="normal" in="SourceGraphic" in2="BackgroundImageFix" result="shape"/>
<feColorMatrix in="SourceAlpha" type="matrix" values="0 0 0 0 0 0 0 0 0 0 0 0 0 0 0 0 0 0 127 0" result="hardAlpha"/>
<feOffset/>
<feGaussianBlur stdDeviation="1"/>
<feComposite in2="hardAlpha" operator="arithmetic" k2="-1" k3="1"/>
<feColorMatrix type="matrix" values="0 0 0 0 0 0 0 0 0 0 0 0 0 0 0 0 0 0 0.5 0"/>
<feBlend mode="normal" in2="shape" result="effect1_innerShadow_119_47"/>
</filter>
<linearGradient id="paint0_linear_119_47" x1="16" y1="16" x2="162.471" y2="411.796" gradientUnits="userSpaceOnUse">
<stop stop-color="#B9B9B9"/>
<stop offset="1" stop-color="#949494"/>
</linearGradient>
</defs>
</svg>
