<svg width="256" height="256" viewBox="0 0 256 256" fill="none" xmlns="http://www.w3.org/2000/svg">
<path d="M18.5 18.5H216C228.426 18.5 238.5 28.5736 238.5 41V238.5H41C28.5736 238.5 18.5 228.426 18.5 216V18.5Z" fill="#C4C4C4" stroke="url(#paint0_linear_119_37)" stroke-width="5"/>
<g filter="url(#filter0_i_119_37)">
<path d="M107.232 170.864L106.176 174.128L89.7595 175.568L81.5995 171.536V175.28L66.4315 176.624L56.8315 171.824V98.864L75.6475 97.136L85.2475 101.936L92.9275 130.544L101.76 96.752L120.48 95.216L130.08 100.016V173.072L114.144 174.32L107.232 170.864ZM102.528 97.712L90.3355 144.752C90.1435 145.52 89.9515 146.416 89.7595 147.44C89.5675 148.4 89.4075 149.264 89.2795 150.032C89.1515 150.8 89.0875 151.184 89.0875 151.184L88.7035 151.28C88.7035 151.28 88.6395 150.896 88.5115 150.128C88.4475 149.36 88.3195 148.464 88.1275 147.44C87.9995 146.416 87.8395 145.552 87.6475 144.848L74.8795 98.192L57.7915 99.728V170.768L71.0395 169.712V138.992C71.0395 137.648 71.0075 136.24 70.9435 134.768C70.8795 133.232 70.8155 131.952 70.7515 130.928C70.6875 129.904 70.6555 129.392 70.6555 129.392L70.8475 129.296C70.9755 130.192 71.1355 131.312 71.3275 132.656C71.5835 133.936 71.8395 135.184 72.0955 136.4C72.4155 137.552 72.6395 138.448 72.7675 139.088L80.8315 169.808L95.7115 168.464L103.583 138.992C103.968 137.52 104.32 135.984 104.64 134.384C104.96 132.72 105.216 131.312 105.408 130.16C105.6 129.008 105.696 128.432 105.696 128.432L105.888 128.528C105.888 128.528 105.856 129.104 105.792 130.256C105.728 131.408 105.664 132.752 105.6 134.288C105.536 135.824 105.504 137.2 105.504 138.416V168.56L119.52 167.408V96.272L102.528 97.712ZM181.308 122.192C180.86 121.104 180.38 120.08 179.868 119.12C179.42 118.16 178.94 117.264 178.428 116.432C173.948 116.944 170.716 119.152 168.732 123.056C166.748 126.96 165.756 132.048 165.756 138.32C165.756 145.232 166.716 150.384 168.636 153.776C168.828 153.712 169.116 153.68 169.5 153.68C171.42 153.488 173.052 152.784 174.396 151.568C175.804 150.288 176.988 148.72 177.948 146.864C178.972 144.944 179.804 142.928 180.444 140.816L203.772 152.624C201.468 159.536 198.396 165.008 194.556 169.04C190.716 173.072 185.372 175.376 178.524 175.952C178.012 176.016 177.468 176.048 176.892 176.048C176.38 176.048 175.868 176.048 175.356 176.048C170.876 176.048 166.46 175.248 162.108 173.648C157.82 172.112 153.948 169.68 150.492 166.352C147.1 163.024 144.38 158.768 142.332 153.584C140.284 148.336 139.26 142.064 139.26 134.768C139.26 129.392 139.932 124.336 141.276 119.6C142.62 114.8 144.572 110.576 147.132 106.928C149.756 103.28 152.892 100.336 156.54 98.096C160.252 95.792 164.444 94.448 169.116 94.064C169.628 94 170.14 93.968 170.652 93.968C171.164 93.968 171.676 93.968 172.188 93.968C177.308 93.968 181.948 95.056 186.108 97.232C190.332 99.408 193.948 102.288 196.956 105.872C200.028 109.456 202.364 113.424 203.964 117.776L190.908 126.992L181.308 122.192ZM181.02 142.256C180.444 144.112 179.644 145.968 178.62 147.824C177.596 149.68 176.348 151.248 174.876 152.528C173.404 153.744 171.644 154.448 169.596 154.64C169.34 154.704 169.052 154.736 168.732 154.736C168.476 154.736 168.188 154.736 167.868 154.736C163.772 154.736 160.636 153.072 158.46 149.744C156.284 146.416 155.196 141.008 155.196 133.52C155.196 126.8 156.284 121.424 158.46 117.392C160.636 113.36 164.156 111.12 169.02 110.672H170.076C173.212 110.672 175.644 111.664 177.372 113.648C179.164 115.632 180.604 118 181.692 120.752L193.212 112.688C192.06 109.616 190.556 106.736 188.7 104.048C186.908 101.36 184.604 99.184 181.788 97.52C179.036 95.792 175.644 94.928 171.612 94.928C171.228 94.928 170.844 94.928 170.46 94.928C170.076 94.928 169.66 94.96 169.212 95.024C164.668 95.408 160.604 96.72 157.02 98.96C153.436 101.136 150.396 104.016 147.9 107.6C145.404 111.184 143.484 115.312 142.14 119.984C140.86 124.592 140.22 129.52 140.22 134.768C140.22 142.064 141.276 148.368 143.388 153.68C145.564 158.992 148.604 163.088 152.508 165.968C156.476 168.848 161.084 170.288 166.332 170.288C166.716 170.288 167.1 170.288 167.484 170.288C167.932 170.288 168.38 170.256 168.828 170.192C175.484 169.68 180.636 167.504 184.284 163.664C187.996 159.76 190.908 154.672 193.02 148.4L181.02 142.256Z" fill="#5C6195"/>
</g>
<defs>
<filter id="filter0_i_119_37" x="56.8315" y="93.968" width="147.132" height="82.656" filterUnits="userSpaceOnUse" color-interpolation-filters="sRGB">
<feFlood flood-opacity="0" result="BackgroundImageFix"/>
<feBlend mode="normal" in="SourceGraphic" in2="BackgroundImageFix" result="shape"/>
<feColorMatrix in="SourceAlpha" type="matrix" values="0 0 0 0 0 0 0 0 0 0 0 0 0 0 0 0 0 0 127 0" result="hardAlpha"/>
<feOffset/>
<feGaussianBlur stdDeviation="1"/>
<feComposite in2="hardAlpha" operator="arithmetic" k2="-1" k3="1"/>
<feColorMatrix type="matrix" values="0 0 0 0 0 0 0 0 0 0 0 0 0 0 0 0 0 0 0.5 0"/>
<feBlend mode="normal" in2="shape" result="effect1_innerShadow_119_37"/>
</filter>
<linearGradient id="paint0_linear_119_37" x1="16" y1="16" x2="241" y2="241" gradientUnits="userSpaceOnUse">
<stop stop-color="#B9B9B9"/>
<stop offset="1" stop-color="#949494"/>
</linearGradient>
</defs>
</svg>
