<svg width="640" height="256" viewBox="0 0 640 256" fill="none" xmlns="http://www.w3.org/2000/svg">
<path fill-rule="evenodd" clip-rule="evenodd" d="M313 102L318.5 95.5L324 91L332 87.5L338 86L344 85.5L350 86L356 88.5L363 93.5L368.5 102L371.5 108.5L356 119L352 112L342.5 106.5L333 108.5L324 124.5V144.5L326.5 153L333 159.5L338 160.5L342.5 160L347 158L350.5 154L355 144.5L371.5 153L365 165.5L357.5 176L344.5 180.5L334 181L326.5 179.5L320.5 176.5L316 173L309 163L306 156L304.5 148L303.5 136.5L304.5 124.5L307 114L313 102ZM38 92L57 90H59.5L72.5 133L80 142.5L94 89L116 87.5V177.5L97.5 178.678V138.5L86.5 179L66.5 180.5L55 139.5L57 181H38V92ZM161.5 88L143 89V108H162L161.5 88ZM161.5 113L143 114V179L162 180L161.5 113ZM262 114L280.5 113L281 180L262 179V114ZM280.5 88L262 89V108H281L280.5 88ZM204 114L187 116V180H205L204.5 139L218 135L219 179L236.5 177.5V127L235.5 121.5L232.5 116.5L226.5 113L220 112.5L215.5 113L211 115L207 118.5L204 124V114ZM399.5 119.5L394.5 125L391 134L405.5 139L414.5 129.5L419 136L419.052 137.203L407.5 143.5L396 150.5L392 155.5L390 162.5V168.5L393.5 177L398 180L405 182L425.5 178.5L443.5 176.5L444.5 160L439.5 161.5L438 159V129.5L436.5 122.5L433.5 118L427 114L421.5 113H414.5L406.5 115L399.5 119.5ZM410 157L419.684 151.733L420 159L408 163.5L410 157ZM499 87.5L517 86L518 176L500 178L489.5 181L478 180L470 174.5L465 166.5L463 159.5L462.5 150.5V143.5L463.5 136.5L465 131L467.5 124.5L473 118L479.5 114L486.5 112.5H492L499 114.168V87.5ZM499 135L493 139V157.5L494 162L498 158L499 152.5V135ZM558.5 115L548.5 121.5L545 127L542 132L540 139L539 146V150.5L539.5 155L541 163.5L544.5 171L552.5 178.5L564 181.5L574 180.5L582.5 176.5L588.5 171L594.5 158.5L584 155.5L579 154L576.5 159.5L572 163L566.5 164L557.5 153.5L595.5 150.5L598.5 140.5L596.5 129L590.5 121.5L584 116L576.5 113.5L568.5 113L558.5 115Z" fill="white"/>
<g filter="url(#filter0_i_123_40)">
<path d="M100.055 181.08L98.735 185.16L78.215 186.96L68.015 181.92V186.6L49.055 188.28L37.055 182.28V91.08L60.575 88.92L72.575 94.92L82.175 130.68L93.215 88.44L116.615 86.52L128.615 92.52V183.84L108.695 185.4L100.055 181.08ZM94.175 89.64L78.935 148.44C78.695 149.4 78.455 150.52 78.215 151.8C77.975 153 77.775 154.08 77.615 155.04C77.455 156 77.375 156.48 77.375 156.48L76.895 156.6C76.895 156.6 76.815 156.12 76.655 155.16C76.575 154.2 76.415 153.08 76.175 151.8C76.015 150.52 75.815 149.44 75.575 148.56L59.615 90.24L38.255 92.16V180.96L54.815 179.64V141.24C54.815 139.56 54.775 137.8 54.695 135.96C54.615 134.04 54.535 132.44 54.455 131.16C54.375 129.88 54.335 129.24 54.335 129.24L54.575 129.12C54.735 130.24 54.935 131.64 55.175 133.32C55.495 134.92 55.815 136.48 56.135 138C56.535 139.44 56.815 140.56 56.975 141.36L67.055 179.76L85.655 178.08L95.495 141.24C95.975 139.4 96.415 137.48 96.815 135.48C97.215 133.4 97.535 131.64 97.775 130.2C98.015 128.76 98.135 128.04 98.135 128.04L98.375 128.16C98.375 128.16 98.335 128.88 98.255 130.32C98.175 131.76 98.095 133.44 98.015 135.36C97.935 137.28 97.895 139 97.895 140.52V178.2L115.415 176.76V87.84L94.175 89.64ZM142.49 179.64V113.64L150.65 113.04L142.25 108.84V88.44L162.29 86.76L174.29 92.76V113.16L165.77 113.88L173.93 117.96V183.84L154.49 185.52L142.49 179.64ZM143.45 89.52V107.52L161.09 106.08V88.08L143.45 89.52ZM143.69 114.72V178.32L160.73 176.88V113.28L143.69 114.72ZM217.873 179.52V141.96C216.913 142.92 216.313 144.04 216.073 145.32V185.16L197.952 186.96L185.953 180.96V115.08L204.313 113.4L208.153 116.52C209.513 115.4 210.993 114.4 212.593 113.52C214.193 112.56 216.113 112 218.353 111.84C218.753 111.84 219.113 111.84 219.433 111.84C219.753 111.76 220.073 111.72 220.393 111.72C223.993 111.72 227.513 112.36 230.953 113.64C234.473 114.92 237.593 116.72 240.312 119.04C243.113 121.28 245.313 123.92 246.913 126.96C248.593 130 249.433 133.28 249.433 136.8V183.72L229.873 185.4L217.873 179.52ZM236.233 128.88C236.233 123.36 234.713 119.32 231.673 116.76C228.713 114.2 225.033 112.92 220.633 112.92C220.313 112.92 219.953 112.92 219.553 112.92C219.233 112.92 218.873 112.96 218.473 113.04C214.553 113.36 211.233 114.88 208.513 117.6C205.793 120.24 204.113 123.32 203.473 126.84H203.113V114.72L187.153 116.16V179.76L204.313 178.2V139.2C204.713 137.28 205.593 135.52 206.953 133.92C208.393 132.32 210.233 131.4 212.473 131.16H212.953C214.633 131.16 216.073 131.76 217.273 132.96C218.473 134.08 219.073 135.96 219.073 138.6V178.2L236.233 176.64V128.88ZM261.318 179.64V113.64L269.478 113.04L261.078 108.84V88.44L281.118 86.76L293.118 92.76V113.16L284.598 113.88L292.758 117.96V183.84L273.318 185.52L261.318 179.64ZM262.278 89.52V107.52L279.918 106.08V88.08L262.278 89.52ZM262.518 114.72V178.32L279.558 176.88V113.28L262.518 114.72ZM355.541 120.24C354.981 118.88 354.381 117.6 353.741 116.4C353.181 115.2 352.581 114.08 351.941 113.04C346.341 113.68 342.301 116.44 339.821 121.32C337.341 126.2 336.101 132.56 336.101 140.4C336.101 149.04 337.301 155.48 339.701 159.72C339.941 159.64 340.301 159.6 340.781 159.6C343.181 159.36 345.221 158.48 346.901 156.96C348.661 155.36 350.141 153.4 351.341 151.08C352.621 148.68 353.661 146.16 354.461 143.52L383.621 158.28C380.741 166.92 376.901 173.76 372.101 178.8C367.301 183.84 360.621 186.72 352.061 187.44C351.421 187.52 350.741 187.56 350.021 187.56C349.381 187.56 348.741 187.56 348.101 187.56C342.501 187.56 336.981 186.56 331.541 184.56C326.181 182.64 321.341 179.6 317.021 175.44C312.781 171.28 309.381 165.96 306.821 159.48C304.261 152.92 302.981 145.08 302.981 135.96C302.981 129.24 303.821 122.92 305.501 117C307.181 111 309.621 105.72 312.821 101.16C316.101 96.6 320.021 92.92 324.581 90.12C329.221 87.24 334.461 85.56 340.301 85.08C340.941 85 341.581 84.96 342.221 84.96C342.861 84.96 343.501 84.96 344.141 84.96C350.541 84.96 356.341 86.32 361.541 89.04C366.821 91.76 371.341 95.36 375.101 99.84C378.941 104.32 381.861 109.28 383.861 114.72L367.541 126.24L355.541 120.24ZM355.181 145.32C354.461 147.64 353.461 149.96 352.181 152.28C350.901 154.6 349.341 156.56 347.501 158.16C345.661 159.68 343.461 160.56 340.901 160.8C340.581 160.88 340.221 160.92 339.821 160.92C339.501 160.92 339.141 160.92 338.741 160.92C333.621 160.92 329.701 158.84 326.981 154.68C324.261 150.52 322.901 143.76 322.901 134.4C322.901 126 324.261 119.28 326.981 114.24C329.701 109.2 334.101 106.4 340.181 105.84H341.501C345.421 105.84 348.461 107.08 350.621 109.56C352.861 112.04 354.661 115 356.021 118.44L370.421 108.36C368.981 104.52 367.101 100.92 364.781 97.56C362.541 94.2 359.661 91.48 356.141 89.4C352.701 87.24 348.461 86.16 343.421 86.16C342.941 86.16 342.461 86.16 341.981 86.16C341.501 86.16 340.981 86.2 340.421 86.28C334.741 86.76 329.661 88.4 325.181 91.2C320.701 93.92 316.901 97.52 313.781 102C310.661 106.48 308.261 111.64 306.581 117.48C304.981 123.24 304.181 129.4 304.181 135.96C304.181 145.08 305.501 152.96 308.141 159.6C310.861 166.24 314.661 171.36 319.541 174.96C324.501 178.56 330.261 180.36 336.821 180.36C337.301 180.36 337.781 180.36 338.261 180.36C338.821 180.36 339.381 180.32 339.941 180.24C348.261 179.6 354.701 176.88 359.261 172.08C363.901 167.2 367.541 160.84 370.181 153L355.181 145.32ZM455.917 182.16C453.357 183.2 450.717 183.72 447.997 183.72C445.517 183.72 443.237 183.36 441.157 182.64C439.077 182 437.477 181.36 436.357 180.72C432.837 184.96 427.677 187.4 420.877 188.04C420.237 188.12 419.597 188.16 418.957 188.16C418.317 188.16 417.677 188.16 417.037 188.16C412.077 188.16 407.517 187.28 403.357 185.52C399.197 183.84 395.837 181.28 393.277 177.84C390.797 174.32 389.557 170 389.557 164.88C389.557 159.36 391.077 154.96 394.117 151.68C397.237 148.4 401.877 145.28 408.037 142.32L401.917 140.28L389.917 134.28C391.917 127.32 395.157 122.08 399.637 118.56C404.197 115.04 409.357 113 415.117 112.44C415.837 112.36 416.557 112.32 417.277 112.32C417.997 112.24 418.677 112.2 419.317 112.2C425.077 112.2 430.317 113.28 435.037 115.44C439.757 117.52 443.517 120.52 446.317 124.44C449.117 128.28 450.517 132.8 450.517 138V160.8L457.837 164.4L455.917 182.16ZM444.397 160.44C442.477 161.32 441.037 161.76 440.077 161.76C438.237 161.76 437.317 160.56 437.317 158.16V132C437.317 119.68 431.117 113.52 418.717 113.52C418.157 113.52 417.597 113.52 417.037 113.52C416.477 113.52 415.877 113.56 415.237 113.64C409.717 114.2 404.797 116.12 400.477 119.4C396.157 122.68 393.117 127.44 391.357 133.68L404.797 138.12C405.677 135.4 406.877 133.2 408.397 131.52C409.997 129.84 411.797 128.92 413.797 128.76C414.037 128.76 414.277 128.76 414.517 128.76C414.757 128.68 414.957 128.64 415.117 128.64C416.957 128.64 418.357 129.08 419.317 129.96C420.277 130.84 420.757 132.04 420.757 133.56C420.757 135.24 420.237 136.6 419.197 137.64C418.157 138.6 416.717 139.52 414.877 140.4L409.477 142.92C403.317 145.8 398.637 148.84 395.437 152.04C392.317 155.16 390.757 159.44 390.757 164.88C390.757 175.6 395.797 180.96 405.877 180.96C406.357 180.96 406.837 180.96 407.317 180.96C407.797 180.96 408.277 180.92 408.757 180.84C412.597 180.52 415.917 179.6 418.717 178.08C421.517 176.56 423.637 174.4 425.077 171.6C425.637 173.28 426.837 174.6 428.677 175.56C430.517 176.52 432.677 177 435.157 177C437.797 177 440.317 176.48 442.717 175.44L444.397 160.44ZM412.117 166.92C410.757 166.92 409.637 166.56 408.757 165.84C407.877 165.04 407.437 163.92 407.437 162.48C407.437 159.04 409.197 156.48 412.717 154.8L415.117 153.6C416.237 153.04 417.317 152.52 418.357 152.04C419.477 151.48 420.317 150.88 420.877 150.24V158.52C420.477 161 419.517 163 417.997 164.52C416.477 165.96 414.797 166.76 412.957 166.92H412.117ZM509.024 182.52C507.744 183.56 506.224 184.48 504.464 185.28C502.784 186.08 500.784 186.56 498.464 186.72C497.824 186.8 497.144 186.84 496.424 186.84C495.704 186.84 495.024 186.84 494.384 186.84C487.984 186.84 482.304 185.48 477.344 182.76C472.464 180.12 468.624 175.96 465.824 170.28C463.104 164.6 461.744 157.24 461.744 148.2C461.744 136.84 463.904 128.08 468.224 121.92C472.624 115.76 478.784 112.32 486.704 111.6C487.024 111.6 487.304 111.6 487.544 111.6C487.864 111.52 488.184 111.48 488.504 111.48C490.744 111.48 492.664 111.72 494.264 112.2C495.864 112.68 497.304 113.12 498.584 113.52V86.88L518.144 85.2L530.144 91.2V182.52L511.784 183.96L509.024 182.52ZM499.784 87.96V117.96L499.424 118.08C498.864 116.48 497.624 115.2 495.704 114.24C493.784 113.2 491.384 112.68 488.504 112.68C488.264 112.68 487.984 112.72 487.664 112.8C487.424 112.8 487.144 112.8 486.824 112.8C479.224 113.52 473.344 116.88 469.184 122.88C465.024 128.8 462.944 137.24 462.944 148.2C462.944 158.76 464.864 166.68 468.704 171.96C472.624 177.16 477.864 179.76 484.424 179.76C484.824 179.76 485.184 179.76 485.504 179.76C485.904 179.76 486.264 179.72 486.584 179.64C490.344 179.24 493.384 178.08 495.704 176.16C498.024 174.16 499.664 171.92 500.624 169.44L500.984 169.56V176.76L516.944 175.44V86.52L499.784 87.96ZM489.704 163.8C487.144 163.8 484.944 162.48 483.104 159.84C481.344 157.12 480.464 152.72 480.464 146.64C480.464 140.56 481.304 136.16 482.984 133.44C484.664 130.72 487.224 129.2 490.664 128.88H491.744C493.824 128.88 495.584 129.4 497.024 130.44C498.464 131.48 499.384 132.84 499.784 134.52V151.08C499.784 154.68 498.904 157.64 497.144 159.96C495.464 162.28 493.224 163.56 490.424 163.8H489.704ZM498.584 137.4C496.824 137.64 495.544 138.92 494.744 141.24C494.024 143.56 493.664 147.36 493.664 152.64C493.664 154.32 493.704 155.92 493.784 157.44C493.864 158.88 494.104 160.08 494.504 161.04C497.224 158.8 498.584 155.48 498.584 151.08V137.4ZM607.262 163.92C605.102 170.64 601.902 176.08 597.662 180.24C593.502 184.4 587.822 186.8 580.622 187.44C579.742 187.52 578.862 187.56 577.982 187.56C577.182 187.64 576.342 187.68 575.462 187.68C568.502 187.68 562.222 186.24 556.622 183.36C551.102 180.56 546.702 176.32 543.422 170.64C540.142 164.96 538.502 157.92 538.502 149.52C538.502 142.16 539.742 135.8 542.222 130.44C544.782 125.08 548.222 120.88 552.542 117.84C556.942 114.72 561.942 112.92 567.542 112.44C568.102 112.36 568.662 112.32 569.222 112.32C569.862 112.32 570.462 112.32 571.022 112.32C575.502 112.32 579.902 113.12 584.222 114.72C588.622 116.24 592.582 118.64 596.102 121.92C599.702 125.2 602.542 129.44 604.622 134.64C606.782 139.76 607.862 145.92 607.862 153.12C607.862 153.76 607.862 154.44 607.862 155.16C607.862 155.8 607.822 156.44 607.742 157.08L595.142 158.16L607.262 163.92ZM578.942 154.68C578.222 157.4 576.902 159.64 574.982 161.4C573.062 163.16 570.582 164.2 567.542 164.52H566.582C563.862 164.52 561.622 163.52 559.862 161.52C558.102 159.52 557.222 156.76 557.222 153.24L594.542 150C594.622 149.2 594.662 148.44 594.662 147.72C594.662 146.92 594.662 146.16 594.662 145.44C594.662 135.36 592.502 127.52 588.182 121.92C583.862 116.32 577.902 113.52 570.302 113.52C569.902 113.52 569.462 113.52 568.982 113.52C568.582 113.52 568.142 113.56 567.662 113.64C562.302 114.04 557.502 115.76 553.262 118.8C549.022 121.76 545.702 125.84 543.302 131.04C540.902 136.24 539.702 142.4 539.702 149.52C539.702 159.84 542.022 167.56 546.662 172.68C551.302 177.8 557.462 180.36 565.142 180.36C565.702 180.36 566.262 180.36 566.822 180.36C567.382 180.36 567.942 180.32 568.502 180.24C575.382 179.68 580.822 177.44 584.822 173.52C588.902 169.6 591.822 164.72 593.582 158.88L578.942 154.68ZM557.822 139.8C557.822 137.16 558.742 134.88 560.582 132.96C562.422 131.04 564.782 129.96 567.662 129.72H568.742C571.142 129.72 573.102 130.44 574.622 131.88C576.222 133.24 577.022 135.32 577.022 138.12L557.822 139.8ZM567.542 160.68C567.542 161.08 567.702 161.48 568.022 161.88C568.422 162.28 568.822 162.68 569.222 163.08C570.662 162.68 571.782 162.2 572.582 161.64C573.382 161.08 574.062 160.52 574.622 159.96L567.542 160.68Z" fill="#5C6195"/>
</g>
<defs>
<filter id="filter0_i_123_40" x="37.0549" y="84.96" width="570.807" height="103.32" filterUnits="userSpaceOnUse" color-interpolation-filters="sRGB">
<feFlood flood-opacity="0" result="BackgroundImageFix"/>
<feBlend mode="normal" in="SourceGraphic" in2="BackgroundImageFix" result="shape"/>
<feColorMatrix in="SourceAlpha" type="matrix" values="0 0 0 0 0 0 0 0 0 0 0 0 0 0 0 0 0 0 127 0" result="hardAlpha"/>
<feOffset/>
<feGaussianBlur stdDeviation="1"/>
<feComposite in2="hardAlpha" operator="arithmetic" k2="-1" k3="1"/>
<feColorMatrix type="matrix" values="0 0 0 0 0 0 0 0 0 0 0 0 0 0 0 0 0 0 0.5 0"/>
<feBlend mode="normal" in2="shape" result="effect1_innerShadow_123_40"/>
</filter>
</defs>
</svg>
