<svg width="48" height="48" viewBox="0 0 48 48" fill="none" xmlns="http://www.w3.org/2000/svg">
<path d="M3 24C3 35.598 12.402 45 24 45C35.598 45 45 35.598 45 24C45 12.402 35.598 3 24 3C12.402 3 3 12.402 3 24Z" fill="#ACB4C9"/>
<circle cx="14.5" cy="19.5" r="2.5" fill="#576684"/>
<path d="M36 19.5C36 20.8807 34.8807 22 33.5 22C32.1193 22 31 20.8807 31 19.5C31 18.1193 32.1193 17 33.5 17C34.8807 17 36 18.1193 36 19.5Z" fill="#576684"/>
<path d="M24 40C29.3957 40 33.884 36.1152 34.8205 30.9899C35.019 29.9034 34.1068 29 33.0022 29H24H14.9978C13.8932 29 12.981 29.9034 13.1795 30.9899C14.116 36.1152 18.6043 40 24 40Z" fill="#576684"/>
</svg>
